<svg width="20" height="20" viewBox="0 0 20 20" fill="none" xmlns="http://www.w3.org/2000/svg">
<path fill-rule="evenodd" clip-rule="evenodd" d="M11.9697 14.4697C11.6768 14.7626 11.6768 15.2374 11.9697 15.5303C12.2626 15.8232 12.7374 15.8232 13.0303 15.5303L18.0297 10.5309C18.0301 10.5305 18.0305 10.5301 18.0309 10.5297L18.5607 10L18.0309 9.47027C18.0305 9.46987 18.0301 9.46947 18.0297 9.46907L13.0303 4.46967C12.7374 4.17678 12.2626 4.17678 11.9697 4.46967C11.6768 4.76256 11.6768 5.23744 11.9697 5.53033L15.6893 9.25H2.5C2.08579 9.25 1.75 9.58579 1.75 10C1.75 10.4142 2.08579 10.75 2.5 10.75H15.6893L11.9697 14.4697Z" fill="#231F20"/>
</svg>
