<svg width="20" height="20" viewBox="0 0 20 20" fill="none" xmlns="http://www.w3.org/2000/svg">
<path fill-rule="evenodd" clip-rule="evenodd" d="M7.91684 1.75C7.45525 1.75 6.97743 1.92459 6.56506 2.13871C6.13734 2.3608 5.70664 2.66393 5.32226 3.00365C4.93872 3.34263 4.58113 3.73586 4.31367 4.14829C4.05485 4.54741 3.83398 5.03607 3.83398 5.54901V17.5057L9.88168 14.249C9.95567 14.2091 10.0447 14.2091 10.1187 14.249L16.1673 17.5056V5.54901C16.1673 5.03598 15.9463 4.54728 15.6874 4.14817C15.4198 3.73575 15.0621 3.34253 14.6785 3.00357C14.294 2.66386 13.8632 2.36075 13.4354 2.13867C13.0229 1.92457 12.5451 1.75 12.0835 1.75H7.91684Z" fill="#D99C4C"/>
</svg>
