<svg width="20" height="20" viewBox="0 0 20 20" fill="none" xmlns="http://www.w3.org/2000/svg">
<path fill-rule="evenodd" clip-rule="evenodd" d="M5.57221 4.96443C5.3859 5.25172 5.33398 5.45012 5.33398 5.54901V14.9943L9.17048 12.9283C9.68843 12.6494 10.3119 12.6494 10.8298 12.9282L14.6673 14.9944V5.54901C14.6673 5.45021 14.6154 5.25186 14.429 4.96455C14.2513 4.69057 13.9913 4.39801 13.6853 4.12768C13.3802 3.85809 13.0494 3.6284 12.7443 3.46998C12.4237 3.30359 12.1972 3.25 12.0835 3.25H7.91684C7.80314 3.25 7.57669 3.30358 7.25629 3.46995C6.95123 3.62835 6.62063 3.85802 6.31562 4.12759C6.00977 4.39791 5.74988 4.69045 5.57221 4.96443ZM6.56506 2.13871C6.97743 1.92459 7.45525 1.75 7.91684 1.75H12.0835C12.5451 1.75 13.0229 1.92457 13.4354 2.13867C13.8632 2.36075 14.294 2.66386 14.6785 3.00357C15.0621 3.34253 15.4198 3.73575 15.6874 4.14817C15.9463 4.54728 16.1673 5.03598 16.1673 5.54901V17.5056L10.1187 14.249C10.0447 14.2091 9.95567 14.2091 9.88168 14.249L3.83398 17.5057V5.54901C3.83398 5.03607 4.05485 4.54741 4.31367 4.14829C4.58113 3.73586 4.93872 3.34263 5.32226 3.00365C5.70664 2.66393 6.13734 2.3608 6.56506 2.13871Z" fill="#231F20"/>
</svg>
