<svg width="32" height="32" viewBox="0 0 32 32" fill="none" xmlns="http://www.w3.org/2000/svg">
<path fill-rule="evenodd" clip-rule="evenodd" d="M6.5 8.875C6.5 8.39175 7.01675 8 7.5 8H24.875C25.3582 8 25.75 8.39175 25.75 8.875C25.75 9.35825 25.3582 9.75 24.875 9.75H7.5C7.01675 9.75 6.5 9.35825 6.5 8.875ZM6.5 15.875C6.5 15.3918 7.01675 15 7.5 15H24.875C25.3582 15 25.75 15.3918 25.75 15.875C25.75 16.3582 25.3582 16.75 24.875 16.75H7.5C7.01675 16.75 6.5 16.3582 6.5 15.875ZM7.5 22C7.01675 22 6.5 22.3918 6.5 22.875C6.5 23.3582 7.01675 23.75 7.5 23.75H24.875C25.3582 23.75 25.75 23.3582 25.75 22.875C25.75 22.3918 25.3582 22 24.875 22H7.5Z" fill="#231F20"/>
</svg>
