<svg width="20" height="20" viewBox="0 0 20 20" fill="none" xmlns="http://www.w3.org/2000/svg">
<path fill-rule="evenodd" clip-rule="evenodd" d="M9.69711 6.36431C9.99 6.07142 9.99 5.59655 9.69711 5.30365C9.40422 5.01076 8.92934 5.01076 8.63645 5.30365L3.93945 10.0007L8.63645 14.6976C8.92934 14.9905 9.40422 14.9905 9.69711 14.6976C9.99 14.4048 9.99 13.9299 9.69711 13.637L6.06077 10.0007L9.69711 6.36431ZM14.6971 6.36431C14.99 6.07142 14.99 5.59655 14.6971 5.30365C14.4042 5.01076 13.9293 5.01076 13.6365 5.30365L8.93945 10.0007L13.6365 14.6976C13.9293 14.9905 14.4042 14.9905 14.6971 14.6976C14.99 14.4048 14.99 13.9299 14.6971 13.637L11.0608 10.0007L14.6971 6.36431Z" fill="#231F20"/>
</svg>
