<svg width="18" height="18" viewBox="0 0 18 18" fill="none" xmlns="http://www.w3.org/2000/svg">
<path fill-rule="evenodd" clip-rule="evenodd" d="M17.0723 1.98736C17.3652 1.69447 17.3652 1.21959 17.0723 0.926701C16.7794 0.633808 16.3045 0.633808 16.0116 0.926701L9.00021 7.93814L1.98877 0.926701C1.69588 0.633808 1.221 0.633808 0.92811 0.926701C0.635217 1.21959 0.635217 1.69447 0.92811 1.98736L7.93955 8.9988L0.926701 16.0116C0.633808 16.3045 0.633808 16.7794 0.926701 17.0723C1.21959 17.3652 1.69447 17.3652 1.98736 17.0723L9.00021 10.0595L16.0131 17.0723C16.3059 17.3652 16.7808 17.3652 17.0737 17.0723C17.3666 16.7794 17.3666 16.3045 17.0737 16.0116L10.0609 8.9988L17.0723 1.98736Z" fill="#231F20"/>
</svg>
