<svg width="20" height="20" viewBox="0 0 20 20" fill="none" xmlns="http://www.w3.org/2000/svg">
<path fill-rule="evenodd" clip-rule="evenodd" d="M0.916992 9.16667C0.916992 4.92303 5.14856 1.75 10.0003 1.75C14.8521 1.75 19.0837 4.92303 19.0837 9.16667C19.0837 13.4103 14.8521 16.5833 10.0003 16.5833C9.11263 16.5833 8.25313 16.4796 7.43979 16.2855L3.66907 18.1708C3.41956 18.2956 3.12143 18.2715 2.89513 18.1084C2.66882 17.9453 2.55175 17.6701 2.5912 17.3939L3.07945 13.9762C1.74991 12.7009 0.916992 11.0265 0.916992 9.16667ZM10.0003 3.25C5.64734 3.25 2.41699 6.04651 2.41699 9.16667C2.41699 10.6583 3.1315 12.051 4.36897 13.1225C4.56181 13.2895 4.65655 13.543 4.62048 13.7956L4.27856 16.189L7.01816 14.8192C7.18213 14.7372 7.37046 14.7182 7.54756 14.7656C8.31545 14.9712 9.14022 15.0833 10.0003 15.0833C14.3533 15.0833 17.5837 12.2868 17.5837 9.16667C17.5837 6.04651 14.3533 3.25 10.0003 3.25Z" fill="#231F20"/>
</svg>
