<svg width="32" height="32" viewBox="0 0 32 32" fill="none" xmlns="http://www.w3.org/2000/svg">
<circle cx="16" cy="16" r="16" fill="#EADFFF"/>
<path fill-rule="evenodd" clip-rule="evenodd" d="M15.7746 9.25C15.2366 9.25 14.7589 9.59429 14.5888 10.1047L14.2146 11.2274L13.9149 11.3623C13.6012 11.5036 13.3042 11.6759 13.0279 11.8753L12.761 12.068L11.5998 11.8304C11.0727 11.7225 10.5357 11.9641 10.2667 12.43L10.0415 12.82C9.77251 13.2859 9.83183 13.8718 10.1888 14.2743L10.9746 15.1605L10.9419 15.4871C10.9251 15.6556 10.9164 15.8267 10.9164 16C10.9164 16.1733 10.9251 16.3444 10.9419 16.5129L10.9746 16.8395L10.1888 17.7257C9.83183 18.1282 9.77251 18.7141 10.0415 19.18L10.2667 19.57C10.5357 20.0359 11.0727 20.2775 11.5998 20.1696L12.761 19.932L13.0279 20.1247C13.3042 20.3242 13.6012 20.4964 13.9149 20.6377L14.2146 20.7726L14.5888 21.8953C14.7589 22.4057 15.2366 22.75 15.7746 22.75H16.2249C16.763 22.75 17.2406 22.4057 17.4108 21.8953L17.785 20.7726L18.0846 20.6377C18.3983 20.4964 18.6953 20.3242 18.9716 20.1247L19.2385 19.932L20.3997 20.1696C20.9269 20.2775 21.4638 20.0359 21.7329 19.57L21.958 19.18C22.227 18.7141 22.1677 18.1282 21.8107 17.7257L21.0249 16.8395L21.0576 16.5129C21.0745 16.3444 21.0831 16.1733 21.0831 16C21.0831 15.8267 21.0745 15.6556 21.0576 15.4871L21.0249 15.1605L21.8107 14.2743C22.1677 13.8718 22.227 13.2859 21.958 12.82L21.7329 12.43C21.4638 11.9641 20.9268 11.7225 20.3997 11.8304L19.2385 12.068L18.9716 11.8753C18.6953 11.6758 18.3983 11.5036 18.0846 11.3623L17.785 11.2274L17.4108 10.1047C17.2406 9.59429 16.763 9.25 16.2249 9.25H15.7746ZM13.1657 9.63037C13.5401 8.50743 14.5909 7.75 15.7746 7.75H16.2249C17.4086 7.75 18.4595 8.50743 18.8338 9.63037L19.0039 10.1407C19.1989 10.2408 19.3883 10.3504 19.5713 10.4688L20.099 10.3608C21.2587 10.1235 22.4401 10.6549 23.0319 11.68L23.2571 12.07C23.8489 13.0951 23.7184 14.3839 22.933 15.2695L22.5751 15.6732C22.5804 15.7815 22.5831 15.8905 22.5831 16C22.5831 16.1095 22.5804 16.2185 22.5751 16.3268L22.933 16.7305C23.7184 17.6161 23.8489 18.9049 23.2571 19.93L23.0319 20.32C22.4401 21.3451 21.2587 21.8765 20.099 21.6392L19.5713 21.5312C19.3883 21.6496 19.1989 21.7592 19.0039 21.8593L18.8338 22.3696C18.4595 23.4926 17.4086 24.25 16.2249 24.25H15.7746C14.5909 24.25 13.5401 23.4926 13.1657 22.3696L12.9956 21.8593C12.8006 21.7592 12.6113 21.6496 12.4283 21.5312L11.9005 21.6392C10.7409 21.8765 9.55948 21.3451 8.96763 20.32L8.74249 19.93C8.15064 18.9049 8.28116 17.6161 9.0665 16.7305L9.42442 16.3268C9.41912 16.2185 9.41644 16.1095 9.41644 16C9.41644 15.8905 9.41912 15.7815 9.42442 15.6732L9.0665 15.2695C8.28116 14.3839 8.15065 13.0951 8.74249 12.07L8.96764 11.68C9.55948 10.6549 10.7409 10.1235 11.9005 10.3608L12.4283 10.4688C12.6113 10.3504 12.8006 10.2408 12.9956 10.1407L13.1657 9.63037Z" fill="#231F20"/>
<path fill-rule="evenodd" clip-rule="evenodd" d="M13.75 16C13.75 14.7574 14.7574 13.75 16 13.75C17.2426 13.75 18.25 14.7574 18.25 16C18.25 17.2426 17.2426 18.25 16 18.25C14.7574 18.25 13.75 17.2426 13.75 16ZM16 15.25C15.5858 15.25 15.25 15.5858 15.25 16C15.25 16.4142 15.5858 16.75 16 16.75C16.4142 16.75 16.75 16.4142 16.75 16C16.75 15.5858 16.4142 15.25 16 15.25Z" fill="#231F20"/>
</svg>
