<svg width="20" height="20" viewBox="0 0 20 20" fill="none" xmlns="http://www.w3.org/2000/svg">
<path fill-rule="evenodd" clip-rule="evenodd" d="M10 5.5C9.44772 5.5 9 5.94772 9 6.5C9 7.05228 9.44772 7.5 10 7.5C10.5523 7.5 11 7.05228 11 6.5C11 5.94772 10.5523 5.5 10 5.5Z" fill="#231F20"/>
<path fill-rule="evenodd" clip-rule="evenodd" d="M10 9C9.44772 9 9 9.44772 9 10C9 10.5523 9.44772 11 10 11C10.5523 11 11 10.5523 11 10C11 9.44772 10.5523 9 10 9Z" fill="#231F20"/>
<path fill-rule="evenodd" clip-rule="evenodd" d="M10 12.5C9.44772 12.5 9 12.9477 9 13.5C9 14.0523 9.44772 14.5 10 14.5C10.5523 14.5 11 14.0523 11 13.5C11 12.9477 10.5523 12.5 10 12.5Z" fill="#231F20"/>
<path fill-rule="evenodd" clip-rule="evenodd" d="M0.916992 9.99935C0.916992 4.98276 4.98374 0.916016 10.0003 0.916016C15.0169 0.916016 19.0837 4.98276 19.0837 9.99935C19.0837 15.0159 15.0169 19.0827 10.0003 19.0827C4.98374 19.0827 0.916992 15.0159 0.916992 9.99935ZM10.0003 2.41602C5.81217 2.41602 2.41699 5.81119 2.41699 9.99935C2.41699 14.1875 5.81217 17.5827 10.0003 17.5827C14.1885 17.5827 17.5837 14.1875 17.5837 9.99935C17.5837 5.81119 14.1885 2.41602 10.0003 2.41602Z" fill="#231F20"/>
</svg>
