<svg width="20" height="20" viewBox="0 0 20 20" fill="none" xmlns="http://www.w3.org/2000/svg">
<path fill-rule="evenodd" clip-rule="evenodd" d="M6.25032 3.25C4.08419 3.25 2.41699 4.90597 2.41699 6.99591C2.41699 8.28975 3.00332 9.5248 4.19614 10.9553C5.3971 12.3956 7.12931 13.9383 9.29045 15.8606L9.29154 15.8616L10.0022 16.4962L10.7096 15.8693C10.7094 15.8695 10.7098 15.8691 10.7096 15.8693C12.8706 13.943 14.6033 12.3979 15.8043 10.9565C16.9973 9.52485 17.5837 8.28976 17.5837 6.99591C17.5837 4.90597 15.9165 3.25 13.7503 3.25C12.5221 3.25 11.3355 3.81449 10.5667 4.70011L10.0003 5.35251L9.43397 4.70011C8.66514 3.81449 7.47858 3.25 6.25032 3.25ZM0.916992 6.99591C0.916992 4.05044 3.28313 1.75 6.25032 1.75C7.64396 1.75 8.98548 2.278 10.0003 3.15295C11.0152 2.278 12.3567 1.75 13.7503 1.75C16.7175 1.75 19.0837 4.05044 19.0837 6.99591C19.0837 8.79198 18.2533 10.3607 16.9567 11.9168C15.6825 13.446 13.8783 15.0542 11.778 16.9264L11.7077 16.989L11.7061 16.9905L9.99843 18.5038L8.29353 16.9814L8.24426 16.9375C6.13479 15.0612 4.32277 13.4494 3.04409 11.9159C1.74733 10.3608 0.916992 8.79199 0.916992 6.99591Z" fill="#231F20"/>
</svg>
