<svg width="20" height="20" viewBox="0 0 20 20" fill="none" xmlns="http://www.w3.org/2000/svg">
<path fill-rule="evenodd" clip-rule="evenodd" d="M6 6C6 6.55228 5.55228 7 5 7C4.44772 7 4 6.55228 4 6C4 5.44772 4.44772 5 5 5C5.55228 5 6 5.44772 6 6ZM8 5.25C7.58579 5.25 7.25 5.58579 7.25 6C7.25 6.41421 7.58579 6.75 8 6.75H14.6667C15.0809 6.75 15.4167 6.41421 15.4167 6C15.4167 5.58579 15.0809 5.25 14.6667 5.25H8ZM8 9.25C7.58579 9.25 7.25 9.58579 7.25 10C7.25 10.4142 7.58579 10.75 8 10.75H14.6667C15.0809 10.75 15.4167 10.4142 15.4167 10C15.4167 9.58579 15.0809 9.25 14.6667 9.25H8ZM7.25 14C7.25 13.5858 7.58579 13.25 8 13.25H14.6667C15.0809 13.25 15.4167 13.5858 15.4167 14C15.4167 14.4142 15.0809 14.75 14.6667 14.75H8C7.58579 14.75 7.25 14.4142 7.25 14ZM5 11C5.55228 11 6 10.5523 6 10C6 9.44772 5.55228 9 5 9C4.44772 9 4 9.44772 4 10C4 10.5523 4.44772 11 5 11ZM6 14C6 14.5523 5.55228 15 5 15C4.44772 15 4 14.5523 4 14C4 13.4477 4.44772 13 5 13C5.55228 13 6 13.4477 6 14Z" fill="#231F20"/>
</svg>
