<svg width="106" height="25" viewBox="0 0 106 25" fill="none" xmlns="http://www.w3.org/2000/svg">
<g clip-path="url(#clip0_1635_3463)">
<path d="M99.853 24.9302C103.755 24.4649 105.897 22.1845 105.995 17.4867L106.001 8.64062H102.96V13.9521C102.96 14.913 102.628 15.7155 101.998 16.2707C101.468 16.7393 100.734 17.0079 99.9827 17.0079C99.3013 17.0079 98.6278 16.7741 98.1353 16.3673C97.4789 15.8245 97.1319 14.9804 97.1319 13.9262V8.64175H94.0911V15.1737L94.1002 15.1827C94.1002 18.3172 97.1444 19.7772 99.1238 19.7772C101.249 19.7772 102.542 18.3622 102.542 18.3622H102.936C102.936 20.4875 101.525 21.7676 99.9144 22.0609C99.6482 22.1092 99.3946 22.1317 99.1568 22.1317C97.0944 22.1317 96.0614 20.4695 95.7281 19.7963C95.7281 19.7963 93.2311 21.8395 93.2334 21.8451C94.8363 24.6245 97.3845 25.2246 99.8519 24.929L99.853 24.9302Z" fill="#332827"/>
<path d="M83.1578 19.931V8.64389H80.3343V10.3286L79.9225 10.314C79.8838 10.2342 78.9419 8.45508 76.0763 8.45508C74.4894 8.45508 73.0094 9.02601 72.0117 10.1072C71.047 11.1513 70.5146 12.6101 70.5146 14.215C70.5146 15.8199 71.0243 17.2787 71.9491 18.3553C72.9445 19.5141 74.4461 20.1266 76.0763 20.1266C79.0591 20.1266 79.9202 18.3643 79.9202 18.3643H80.3343V19.9321H83.1578V19.931ZM76.7816 17.7226C74.8238 17.7226 73.403 16.2559 73.403 14.2363C73.403 12.3235 74.9273 10.8804 76.9488 10.8804C78.8133 10.8804 80.1159 12.2605 80.1159 14.2363C80.1159 16.2121 78.6825 17.7226 76.7805 17.7226H76.7816Z" fill="#332827"/>
<path d="M67.4033 8.64453L64.507 16.2723H64.1065L61.2102 8.64453H57.9795L62.647 19.9317H65.9665L70.634 8.64453H67.4033Z" fill="#332827"/>
<path d="M89.7946 12.2854C90.7286 11.747 92.3792 11.8336 93.0026 11.8898V8.66085C92.6659 8.64624 92.0004 8.62601 91.6637 8.66872C90.7809 8.78223 90.0108 9.11378 89.3748 9.65436C88.8982 10.0601 88.6798 10.3253 88.6775 10.3287H88.2725V8.64062H85.4365V19.93H88.4898V18.2307C88.4898 17.1012 88.4898 16.156 88.4898 14.7366C88.4898 13.6711 88.9778 12.754 89.7946 12.2831V12.2854Z" fill="#332827"/>
<path d="M48.9764 3.01806C42.945 3.31926 40.6914 7.71813 40.6914 11.5865C40.6914 15.9629 43.4136 20.2809 48.8354 20.2809C50.9365 20.2809 52.9694 19.4526 54.182 17.6903H54.7099C56.2615 15.483 57.5015 12.2069 57.1966 10.3952H49.1778V13.3443H54.5006C54.5006 13.3443 53.9488 17.3588 49.1209 17.3588C45.748 17.3588 43.7322 14.4794 43.7322 11.5877C43.7322 8.44079 46.071 6.17055 49.171 6.00983C52.4518 5.84013 54.2765 8.42955 54.7429 9.232L57.2626 7.17867C55.6074 4.31952 52.4552 2.84161 48.9764 3.01806Z" fill="#332827"/>
<path d="M57.4212 10.3945H54.6045V19.9318H57.4212V10.3945Z" fill="#332827"/>
</g>
<path d="M2.80872 1.51438L8.95045 6.87705L14.4988 0L15.759 4.8124L27.4976 0.285526L22.2105 7.87766L33.0305 10.129L22.2585 14.9846L23.8419 22.1262L17.1769 18.1979L16.8158 24.6563L11.8878 21.2612L8.35222 24.6563L6.48166 20.9487L0 22.0824L4.39697 15.8303L0.353371 14.4304L3.9639 10.2596L2.80872 1.51438Z" fill="#332827"/>
<path d="M19.3284 9.72558C19.3284 9.72558 17.8833 11.2812 16.1017 11.2812C14.3191 11.2812 12.875 9.72558 12.875 9.72558C12.875 9.72558 14.3201 8.16992 16.1017 8.16992C17.8843 8.16992 19.3284 9.72558 19.3284 9.72558Z" fill="#F5F5F5"/>
<path d="M16.1009 11.1426C16.8814 11.1426 17.5142 10.5082 17.5142 9.7256C17.5142 8.94301 16.8814 8.30859 16.1009 8.30859C15.3203 8.30859 14.6875 8.94301 14.6875 9.7256C14.6875 10.5082 15.3203 11.1426 16.1009 11.1426Z" fill="#332827"/>
<defs>
<clipPath id="clip0_1635_3463">
<rect width="65.3088" height="21.9955" fill="white" transform="translate(40.6914 3.00391)"/>
</clipPath>
</defs>
</svg>
