<svg width="20" height="20" viewBox="0 0 20 20" fill="none" xmlns="http://www.w3.org/2000/svg">
<path fill-rule="evenodd" clip-rule="evenodd" d="M17.3964 15.1723C17.3165 15.5108 17.0143 15.75 16.6665 15.75H12.4036C12.2785 16.9672 11.25 17.9167 9.99973 17.9167C8.74946 17.9167 7.72094 16.9672 7.59584 15.75H3.33317C2.98534 15.75 2.68315 15.5108 2.60323 15.1723C2.55337 14.7778 2.60032 14.5929 2.99262 14.3318L3.04672 14.2907C3.23799 14.1459 3.37566 14.0416 3.58085 13.8023C3.8988 13.4049 4.24984 12.7345 4.24984 11.6667V7.49996C4.24984 4.32431 6.82421 1.75 9.99984 1.75C13.1755 1.75 15.7498 4.32431 15.7498 7.49996V11.6667C15.7498 12.7345 16.1009 13.4049 16.4188 13.8023C16.7796 14.2112 16.9236 14.3164 17.2236 14.4978C17.3967 14.6625 17.4218 14.8237 17.3964 15.1723ZM9.11757 15.75C9.22639 16.1348 9.58014 16.4167 9.99973 16.4167C10.4193 16.4167 10.7731 16.1348 10.8819 15.75H9.11757ZM14.2498 11.6667C14.2498 12.7766 14.5717 13.6054 14.942 14.2307H5.11627C5.48651 13.6054 5.74984 12.7766 5.74984 11.6667V7.49996C5.74984 5.15276 7.65262 3.25 9.99984 3.25C12.3471 3.25 14.2498 5.15276 14.2498 7.49996V11.6667Z" fill="#231F20"/>
</svg>
