<svg width="20" height="20" viewBox="0 0 20 20" fill="none" xmlns="http://www.w3.org/2000/svg">
<path fill-rule="evenodd" clip-rule="evenodd" d="M4.54361 6.24982C4.27855 6.58118 4.08301 7.16355 4.08301 8.125C4.08301 9.50506 4.48569 10.1179 4.76855 10.4574C4.83895 10.5418 4.90508 10.6129 4.97705 10.6902L5.01175 10.7275L5.01494 10.7309L5.01494 10.7309L5.01495 10.7309C5.08666 10.8081 5.19756 10.9275 5.28225 11.0593C5.37519 11.2039 5.49286 11.4478 5.45252 11.759C5.41377 12.0579 5.24768 12.271 5.11334 12.4053C4.71657 12.8021 4.24207 13.0793 3.80514 13.2978C3.58515 13.4078 3.36224 13.5087 3.15661 13.6019L3.15621 13.6021C2.946 13.6973 2.75465 13.784 2.57467 13.8739C2.20669 14.0579 1.95877 14.2218 1.80159 14.3971C1.66689 14.5474 1.58301 14.7222 1.58301 15C1.58301 15.4142 1.24722 15.75 0.833008 15.75C0.418794 15.75 0.0830078 15.4142 0.0830078 15C0.0830078 14.3403 0.311626 13.812 0.684737 13.3958C1.03537 13.0047 1.49057 12.7389 1.90385 12.5323C2.10976 12.4293 2.32346 12.3326 2.52423 12.2416L2.52429 12.2416L2.52432 12.2416L2.53772 12.2355C2.74713 12.1407 2.94415 12.0512 3.13432 11.9561C3.37437 11.8361 3.58437 11.7161 3.76388 11.5872C3.71744 11.5359 3.66723 11.4789 3.61622 11.4176C3.11782 10.8196 2.58301 9.86994 2.58301 8.125C2.58301 7.00333 2.80403 6.0232 3.37225 5.31284C3.96605 4.5705 4.83402 4.25 5.83301 4.25C6.832 4.25 7.69996 4.5705 8.29376 5.31284C8.86199 6.0232 9.08301 7.00333 9.08301 8.125C9.08301 9.86994 8.54819 10.8196 8.0498 11.4176C7.99878 11.4789 7.94857 11.5359 7.90214 11.5872C8.08164 11.7161 8.29165 11.8361 8.5317 11.9561C8.72187 12.0512 8.91888 12.1407 9.12829 12.2355L9.14168 12.2416C9.34248 12.3325 9.55622 12.4293 9.76217 12.5323C10.1754 12.7389 10.6306 13.0047 10.9813 13.3958C11.3544 13.812 11.583 14.3403 11.583 15C11.583 15.4142 11.2472 15.75 10.833 15.75C10.4188 15.75 10.083 15.4142 10.083 15C10.083 14.7222 9.99913 14.5474 9.86442 14.3971C9.70724 14.2218 9.45932 14.0579 9.09135 13.8739C8.91137 13.784 8.72002 13.6973 8.50982 13.6021L8.5094 13.6019C8.30377 13.5087 8.08087 13.4078 7.86088 13.2978C7.42394 13.0793 6.94944 12.8021 6.55268 12.4053C6.41833 12.271 6.25224 12.0579 6.2135 11.759C6.17316 11.4478 6.29082 11.2039 6.38376 11.0593C6.46846 10.9275 6.57936 10.8081 6.65106 10.7309L6.65108 10.7309L6.65108 10.7309L6.65426 10.7275L6.68895 10.6902C6.76093 10.6129 6.82706 10.5418 6.89747 10.4574C7.18032 10.1179 7.58301 9.50506 7.58301 8.125C7.58301 7.16355 7.38747 6.58118 7.12241 6.24982C6.88293 5.95043 6.5009 5.75 5.83301 5.75C5.16512 5.75 4.78309 5.95043 4.54361 6.24982ZM7.60987 11.341L7.61218 11.3435C7.61054 11.3418 7.60982 11.341 7.60987 11.341ZM4.05615 11.341C4.0562 11.341 4.05547 11.3418 4.05383 11.3435L4.05615 11.341ZM10.9167 9.16602C10.9167 8.7518 11.2525 8.41602 11.6667 8.41602H14.25V5.83268C14.25 5.41847 14.5858 5.08268 15 5.08268C15.4142 5.08268 15.75 5.41847 15.75 5.83268V8.41602H18.3333C18.7475 8.41602 19.0833 8.7518 19.0833 9.16602C19.0833 9.58023 18.7475 9.91602 18.3333 9.91602H15.75V12.4993C15.75 12.9136 15.4142 13.2493 15 13.2493C14.5858 13.2493 14.25 12.9136 14.25 12.4993V9.91602H11.6667C11.2525 9.91602 10.9167 9.58023 10.9167 9.16602Z" fill="#231F20"/>
</svg>
