<svg width="20" height="20" viewBox="0 0 20 20" fill="none" xmlns="http://www.w3.org/2000/svg">
<path fill-rule="evenodd" clip-rule="evenodd" d="M11.4794 11.4794C11.7723 11.1865 12.2472 11.1865 12.5401 11.4794L17.1967 16.136C17.4896 16.4289 17.4896 16.9038 17.1967 17.1967C16.9038 17.4896 16.4289 17.4896 16.136 17.1967L11.4794 12.5401C11.1865 12.2472 11.1865 11.7723 11.4794 11.4794Z" fill="#231F20"/>
<path fill-rule="evenodd" clip-rule="evenodd" d="M2.58301 8.33398C2.58301 5.15835 5.15737 2.58398 8.33301 2.58398C11.5086 2.58398 14.083 5.15835 14.083 8.33398C14.083 11.5096 11.5086 14.084 8.33301 14.084C5.15737 14.084 2.58301 11.5096 2.58301 8.33398ZM8.33301 4.08398C5.9858 4.08398 4.08301 5.98677 4.08301 8.33398C4.08301 10.6812 5.9858 12.584 8.33301 12.584C10.6802 12.584 12.583 10.6812 12.583 8.33398C12.583 5.98677 10.6802 4.08398 8.33301 4.08398Z" fill="#231F20"/>
</svg>
