<svg width="20" height="20" viewBox="0 0 20 20" fill="none" xmlns="http://www.w3.org/2000/svg">
<path fill-rule="evenodd" clip-rule="evenodd" d="M2.76445 10.3535C2.6715 10.2196 2.59401 10.1003 2.53165 10C2.59401 9.8997 2.6715 9.78039 2.76445 9.64655C3.06586 9.21251 3.52578 8.63148 4.15453 8.0511C5.40814 6.89392 7.31787 5.75 9.99998 5.75C12.6821 5.75 14.5918 6.89392 15.8454 8.0511C16.4742 8.63148 16.9341 9.21251 17.2355 9.64655C17.3285 9.78039 17.406 9.8997 17.4683 10C17.406 10.1003 17.3285 10.2196 17.2355 10.3535C16.9341 10.7875 16.4742 11.3685 15.8454 11.9489C14.5918 13.1061 12.6821 14.25 9.99998 14.25C7.31787 14.25 5.40814 13.1061 4.15453 11.9489C3.52578 11.3685 3.06586 10.7875 2.76445 10.3535ZM19.0038 9.66392C19.004 9.66426 19.0041 9.66459 18.3333 10C19.0041 10.3354 19.004 10.3357 19.0038 10.3361L19.0034 10.3369L19.0024 10.3388L18.9998 10.344L18.9917 10.3597C18.985 10.3726 18.9758 10.3901 18.9641 10.4119C18.9405 10.4556 18.9067 10.5167 18.8623 10.5927C18.7737 10.7447 18.6427 10.9568 18.4676 11.209C18.1179 11.7125 17.5883 12.3815 16.8629 13.0511C15.4081 14.3939 13.1512 15.75 9.99998 15.75C6.84877 15.75 4.59183 14.3939 3.13711 13.0511C2.41169 12.3815 1.88202 11.7125 1.53239 11.209C1.35724 10.9568 1.22627 10.7447 1.13763 10.5927C1.09329 10.5167 1.05946 10.4556 1.03592 10.4119C1.02414 10.3901 1.01494 10.3726 1.00827 10.3597L1.00016 10.344L0.997523 10.3388L0.996559 10.3369L0.996165 10.3361C0.995993 10.3357 0.99583 10.3354 1.66665 10C0.99583 9.66459 0.995993 9.66426 0.996165 9.66392L0.996559 9.66314L0.997523 9.66122L1.00016 9.65602L1.00827 9.64026C1.01494 9.62741 1.02414 9.6099 1.03592 9.58805C1.05946 9.54437 1.09329 9.48327 1.13763 9.40725C1.22627 9.25531 1.35724 9.04317 1.53239 8.79095C1.88202 8.28749 2.41169 7.61852 3.13711 6.9489C4.59183 5.60608 6.84877 4.25 9.99998 4.25C13.1512 4.25 15.4081 5.60608 16.8629 6.9489C17.5883 7.61852 18.1179 8.28749 18.4676 8.79095C18.6427 9.04317 18.7737 9.25531 18.8623 9.40725C18.9067 9.48327 18.9405 9.54437 18.9641 9.58805C18.9758 9.6099 18.985 9.62741 18.9917 9.64026L18.9998 9.65602L19.0024 9.66122L19.0034 9.66314L19.0038 9.66392ZM18.3333 10L19.0041 9.66459L19.1718 10L19.0041 10.3354L18.3333 10ZM0.99583 9.66459L1.66665 10L0.99583 10.3354L0.828125 10L0.99583 9.66459ZM2.33669 10.337C2.33658 10.3372 2.33662 10.3371 2.33681 10.3367L2.33669 10.337ZM2.33667 9.663C2.33661 9.66288 2.33662 9.6629 2.33669 9.66304L2.33667 9.663ZM8.25063 10C8.25063 9.0335 9.03414 8.25 10.0006 8.25C10.9671 8.25 11.7506 9.0335 11.7506 10C11.7506 10.9665 10.9671 11.75 10.0006 11.75C9.03414 11.75 8.25063 10.9665 8.25063 10ZM10.0006 6.75C8.20571 6.75 6.75063 8.20507 6.75063 10C6.75063 11.7949 8.20571 13.25 10.0006 13.25C11.7956 13.25 13.2506 11.7949 13.2506 10C13.2506 8.20507 11.7956 6.75 10.0006 6.75Z" fill="#231F20"/>
</svg>
