<svg width="20" height="20" viewBox="0 0 20 20" fill="none" xmlns="http://www.w3.org/2000/svg">
<path fill-rule="evenodd" clip-rule="evenodd" d="M4.00881 7.17523L4.00834 7.17426C4.00831 7.17419 4.00828 7.17416 4.00881 7.17523L4.01537 7.18827C4.02199 7.20129 4.03311 7.2228 4.0488 7.25189C4.08022 7.31012 4.1298 7.39848 4.19805 7.50982C4.33482 7.73294 4.54498 8.04573 4.83219 8.39221C5.32612 8.98809 6.03555 9.66876 6.97702 10.1722C7.79401 10.609 8.79352 10.9169 9.99954 10.9169C11.2056 10.9169 12.2051 10.609 13.0221 10.1722C14.0169 9.64025 14.7523 8.91052 15.2479 8.29289C15.5072 7.96965 15.697 7.68196 15.8203 7.47821C15.8818 7.37652 15.9265 7.29629 15.9547 7.24368C15.9688 7.21739 15.9788 7.19805 15.9846 7.18644L15.9903 7.17525C16.1696 6.80198 16.6174 6.64486 16.9908 6.82407C17.3642 7.00331 17.5216 7.45134 17.3423 7.82476L16.7115 7.52194C17.3423 7.82477 17.3424 7.82465 17.3423 7.82476L17.3413 7.82693L17.3399 7.82992L17.3357 7.83831L17.3226 7.86453C17.3117 7.88609 17.2964 7.91572 17.2766 7.9526C17.2371 8.02632 17.1796 8.12924 17.1036 8.25482C17.0615 8.32431 17.0137 8.40091 16.96 8.48348L18.6657 9.3281C19.0369 9.51191 19.1888 9.96183 19.005 10.333C18.8212 10.7042 18.3713 10.8561 18.0001 10.6723L16.0227 9.69315C15.6186 10.1355 15.1134 10.6039 14.5003 11.0253L15.9972 12.8593C16.2592 13.1802 16.2113 13.6527 15.8904 13.9146C15.5696 14.1765 15.0971 14.1287 14.8352 13.8078L13.1691 11.7666C12.4588 12.0766 11.6529 12.3019 10.7495 12.3834V14.5835C10.7495 14.9978 10.4138 15.3335 9.99954 15.3335C9.58533 15.3335 9.24954 14.9978 9.24954 14.5835V12.3834C8.32479 12.3 7.50226 12.0659 6.77973 11.7444L4.7011 13.8593C4.41074 14.1547 3.93589 14.1588 3.64048 13.8684C3.34506 13.5781 3.34096 13.1032 3.63131 12.8078L5.43013 10.9776C4.88573 10.5953 4.42859 10.1773 4.05376 9.77681L1.96612 10.6876C1.58647 10.8533 1.14442 10.6798 0.978783 10.3001C0.813143 9.92048 0.986636 9.47843 1.36629 9.31279L3.08992 8.56078C3.02561 8.46413 2.96876 8.37459 2.91921 8.29377C2.83539 8.15703 2.77209 8.0446 2.72864 7.96405C2.70691 7.92376 2.69011 7.89139 2.67816 7.86788L2.66385 7.83934L2.65939 7.83027L2.65784 7.82706L2.65723 7.8258C2.65717 7.82568 2.65673 7.82476 3.33287 7.50021L2.65673 7.82476C2.47749 7.45134 2.6349 7.00331 3.00832 6.82407C3.38144 6.64497 3.82927 6.80246 4.00881 7.17523Z" fill="#231F20"/>
</svg>
