<svg width="20" height="20" viewBox="0 0 20 20" fill="none" xmlns="http://www.w3.org/2000/svg">
<path fill-rule="evenodd" clip-rule="evenodd" d="M9.99935 0.917969C4.98276 0.917969 0.916016 4.98472 0.916016 10.0013C0.916016 15.0179 4.98276 19.0846 9.99935 19.0846C15.0159 19.0846 19.0827 15.0179 19.0827 10.0013C19.0827 4.98472 15.0159 0.917969 9.99935 0.917969ZM2.41602 10.0013C2.41602 5.81314 5.81119 2.41797 9.99935 2.41797C14.1875 2.41797 17.5827 5.81314 17.5827 10.0013C17.5827 14.1895 14.1875 17.5846 9.99935 17.5846C5.81119 17.5846 2.41602 14.1895 2.41602 10.0013ZM9.99935 5.91797C10.4136 5.91797 10.7493 6.25376 10.7493 6.66797V10.8346C10.7493 11.2488 10.4136 11.5846 9.99935 11.5846C9.58514 11.5846 9.24935 11.2488 9.24935 10.8346V6.66797C9.24935 6.25376 9.58514 5.91797 9.99935 5.91797ZM10 15C10.5523 15 11 14.5523 11 14C11 13.4477 10.5523 13 10 13C9.44771 13 9 13.4477 9 14C9 14.5523 9.44771 15 10 15Z" fill="#D02E0B"/>
</svg>
