<svg xmlns="http://www.w3.org/2000/svg" version="1.1" xmlns:xlink="http://www.w3.org/1999/xlink" xmlns:svgjs="http://svgjs.dev/svgjs" width="81" height="61"><svg width="81" height="61" viewBox="0 0 81 61" fill="none" xmlns="http://www.w3.org/2000/svg">
<path d="M6.84506 3.7466L21.8129 17.0139L35.3346 0L38.4058 11.9059L67.0137 0.706395L54.1286 19.4894L80.4979 25.0593L54.2457 37.0722L58.1046 54.7404L41.8614 45.0217L40.9814 61L28.9716 52.6004L20.355 61L15.7963 51.8273L0 54.632L10.7157 39.1643L0.861191 35.7011L9.66031 25.3823L6.84506 3.7466Z" fill="#332827"></path>
<path d="M47.1063 24.0636C47.1063 24.0636 43.5846 27.9123 39.2426 27.9123C34.8982 27.9123 31.3789 24.0636 31.3789 24.0636C31.3789 24.0636 34.9006 20.2148 39.2426 20.2148C43.587 20.2148 47.1063 24.0636 47.1063 24.0636Z" fill="#F5F5F5"></path>
<path d="M39.2404 27.5719C41.1427 27.5719 42.6848 26.0024 42.6848 24.0662C42.6848 22.1301 41.1427 20.5605 39.2404 20.5605C37.338 20.5605 35.7959 22.1301 35.7959 24.0662C35.7959 26.0024 37.338 27.5719 39.2404 27.5719Z" fill="#332827"></path>
</svg><style>@media (prefers-color-scheme: light) { :root { filter: none; } }
@media (prefers-color-scheme: dark) { :root { filter: none; } }
</style></svg>